<svg xmlns="http://www.w3.org/2000/svg" viewBox="0 0 108.52 125.18"><g id="Layer_2" data-name="Layer 2"><g id="Layer_1-2" data-name="Layer 1"><path d="M46.82,0l30.9,31.1c16.9,17.1,30.8,31.3,30.8,31.6s-7.6,8.1-17,17.5c-3.42,3.49-6.82,7-10.15,10.58-4.46,4.78-9,9.31-13.8,13.79-2.47,2.32-4.84,4.74-7.26,7.12C53,118.9,46.5,125.18,46.5,125.18L22,125.1,0,125l13.5-13.5L27,98h13.7L75.5,62.6s-7.8-8.2-17.2-17.7L41,27.6l-7.1-.1-7.1-.1L0,0H46.82ZM44.47,83H33l19.5-20.4L33,42h10.8s19.7,19.9,19.7,20.5"/></g></g></svg>