<svg xmlns="http://www.w3.org/2000/svg" viewBox="0 0 489.37 364.65"><defs><style>.cls-1{fill:#065977;}</style></defs><g id="Layer_2" data-name="Layer 2"><g id="Layer_1-2" data-name="Layer 1"><rect class="cls-1" x="344.55" y="362.98" width="144.83" height="1.68"/><polygon class="cls-1" points="489.38 0 489.36 0 489.36 0 487.7 0 487.7 0 357.79 0 344.55 0 336.81 0 328.82 4.24 307.84 4.24 181.54 4.24 160.56 4.24 152.56 0 144.83 0 131.58 0 1.68 0 1.68 0 0.01 0 0.01 0 0 0 0 1.68 0.01 1.68 0 84.42 0.01 84.42 0.01 89.78 4.2 97.84 4.2 119.01 4.2 246.44 4.2 267.6 0.01 275.67 0.01 296.84 0.01 296.84 0 362.98 0 362.98 0 364.65 1.66 364.65 131.58 364.65 144.83 364.65 152.56 364.65 160.56 360.42 181.54 360.42 307.84 360.42 328.82 360.42 336.81 364.65 357.79 364.65 357.79 362.98 336.81 362.98 328.82 358.74 307.84 358.74 181.54 358.74 160.56 358.74 152.56 362.98 144.83 362.98 131.58 362.98 1.66 362.98 1.68 280.23 1.67 280.23 1.67 275.67 5.87 267.6 5.87 246.44 5.87 119.01 5.87 97.84 1.67 89.78 1.67 68.61 1.67 68.61 1.68 1.68 131.58 1.68 144.83 1.68 152.56 1.68 160.56 5.92 181.54 5.92 307.84 5.92 328.82 5.92 336.81 1.68 344.55 1.68 357.79 1.68 487.7 1.68 487.71 68.61 487.71 68.61 487.71 89.78 483.51 97.84 483.51 119.01 483.51 246.44 483.51 267.6 487.71 275.67 487.71 280.23 487.7 280.23 487.71 364.65 489.38 364.65 489.37 296.84 489.37 296.84 489.37 275.67 485.17 267.6 485.17 246.44 485.17 119.01 485.17 97.84 489.37 89.78 489.37 84.42 489.38 84.42 489.36 1.68 489.38 1.68 489.38 0"/></g></g></svg>