<svg xmlns="http://www.w3.org/2000/svg" viewBox="0 0 180.29 188.67"><defs><style>.cls-1{opacity:0.5;}.cls-2{fill:#065977;}</style></defs><g id="Layer_2" data-name="Layer 2"><g id="Layer_1-2" data-name="Layer 1"><g class="cls-1"><path class="cls-2" d="M126.74,9.23l-1.33-.6c-2-.92-4.86-2.16-8.4-3.39l-2.77-.94c-1-.29-2-.57-3-.86L109.66,3,108,2.61c-1.1-.25-2.22-.53-3.37-.76A99.43,99.43,0,0,0,90.1.09a95.51,95.51,0,0,0-14.65.5,93.33,93.33,0,0,0-12.6,2.27c-3.63.93-6.61,1.9-8.67,2.64L51,6.7l4.3,10.76,2.83-1.05c1.8-.65,4.41-1.5,7.59-2.31a81.63,81.63,0,0,1,11-2,85.16,85.16,0,0,1,12.87-.44,89.51,89.51,0,0,1,12.78,1.54c1,.2,2,.45,3,.67.48.11,1,.21,1.43.33l1.37.39c.91.27,1.79.5,2.64.76l2.43.82c3.1,1.08,5.62,2.17,7.36,3l1.17.52.84.43.7.36,5.23-10.34-.8-.41Z"/><path class="cls-2" d="M179.25,80.11c-.14-.84-.29-1.64-.42-2.39s-.26-1.45-.38-2.1-.27-1.24-.39-1.77c-.25-1.07-.44-1.9-.57-2.47s-.22-.88-.22-.88l-11.21,2.92s.08.27.18.77.29,1.23.5,2.17c.11.46.25,1,.35,1.55l.33,1.84c.11.66.24,1.35.37,2.09s.19,1.53.29,2.34a83.43,83.43,0,0,1-.54,24,77.89,77.89,0,0,1-3.13,12.47c-.61,2-1.38,3.8-2.07,5.55-.36.87-.76,1.7-1.11,2.51s-.71,1.59-1.1,2.31c-.76,1.46-1.41,2.82-2.11,4s-1.22,2.19-1.76,3l-1.63,2.54,9.61,6.48,1.86-2.89c.61-.91,1.24-2.08,2-3.4s1.54-2.85,2.4-4.51c.44-.83.84-1.72,1.25-2.65s.86-1.86,1.27-2.86c.79-2,1.66-4.09,2.37-6.33A89.74,89.74,0,0,0,179,110.15a95.62,95.62,0,0,0,.62-27.37C179.47,81.85,179.35,81,179.25,80.11Z"/><path class="cls-2" d="M94.25,176.67l-3.45.27c-1.34.09-2.85.08-4.49.14a83,83,0,0,1-35.81-8c-.94-.43-1.82-.92-2.71-1.36l-1.3-.67-1.24-.72c-.81-.47-1.62-.91-2.38-1.37l-2.15-1.39-1-.65-.94-.67L37,161.05c-.56-.38-1-.78-1.5-1.13l-1.24-1-1-.8-.72-.62L32,157l-7.57,8.77.68.59.81.71L27,168l1.42,1.12c.52.4,1.07.86,1.7,1.29l2,1.4,1.07.76,1.16.75,2.46,1.57c.86.53,1.78,1,2.71,1.58l1.41.81,1.49.76c1,.51,2,1.06,3.08,1.56a94.55,94.55,0,0,0,40.83,9.09c1.87-.06,3.59-.06,5.11-.16l3.93-.3,3.41-.42L97.24,176.3Z"/><path class="cls-2" d="M158.84,48.72a87.37,87.37,0,0,0-11.15-14.2,85.67,85.67,0,0,0-27-18.84,87.08,87.08,0,0,0-13.9-4.77l-3.38-.78-3.31-.59c-1.09-.23-2.18-.32-3.24-.47s-2.12-.29-3.16-.35l-3.07-.23c-1-.05-2-.06-3-.09l-1.45,0c-.48,0-1,0-1.42,0L82,8.46c-.9,0-1.78.12-2.64.18s-1.71.1-2.53.21c-1.64.22-3.21.35-4.68.64s-2.88.46-4.17.78-2.53.53-3.65.85-2.17.57-3.11.86l-2.55.82c-.77.23-1.43.48-2,.7L55.25,14l-1.18.43,1.19,3L56.4,17l1.39-.52c.55-.21,1.18-.45,1.92-.67l2.46-.79c.9-.28,1.91-.52,3-.82s2.25-.55,3.5-.83,2.6-.51,4-.75,2.93-.4,4.51-.61c.78-.11,1.6-.14,2.43-.21s1.68-.13,2.55-.17l2.66-.06c.45,0,.9,0,1.36,0l1.4,0c.94,0,1.89,0,2.86.08l3,.23c1,.05,2,.21,3,.33s2.07.24,3.11.45l3.19.57L106,14a84.54,84.54,0,0,1,13.38,4.59,83.25,83.25,0,0,1,36.73,31.81A80.1,80.1,0,0,1,164,66.77a83.15,83.15,0,0,1-.48,56.48,84.7,84.7,0,0,1-9,17.49,86.81,86.81,0,0,1-12.91,14.87A86.46,86.46,0,0,1,125.68,167a83.36,83.36,0,0,1-17.82,7.19l-1.14.32-1.16.27-2.31.54c-1.54.33-3.09.56-4.63.86s-3.11.42-4.65.56l-2.33.18c-.77.06-1.54.13-2.31.13a82.48,82.48,0,0,1-61.26-23.56,86,86,0,0,1-9.23-10.74l-1-1.37c-.33-.45-.64-.9-.93-1.37l-1.75-2.73c-1.06-1.85-2.12-3.62-3-5.43s-1.68-3.57-2.48-5.27c-.34-.87-.67-1.72-1-2.56-.16-.42-.32-.84-.49-1.25l-.42-1.25c-.27-.82-.55-1.63-.81-2.41l-.68-2.35c-.46-1.52-.78-3-1.1-4.41A85.78,85.78,0,0,1,3.36,99.07c-.08-1.54-.08-2.73-.11-3.53l0-1.21H0s0,.43,0,1.26,0,2.06.12,3.66A89.19,89.19,0,0,0,2.06,113c.33,1.45.66,3,1.15,4.58.22.79.46,1.61.7,2.44s.56,1.65.84,2.51c.15.42.29.86.44,1.29l.51,1.3,1,2.67c.82,1.76,1.58,3.63,2.58,5.47s2,3.72,3.11,5.64l1.82,2.84a17,17,0,0,0,1,1.42l1,1.42a87.09,87.09,0,0,0,9.58,11.15,85.75,85.75,0,0,0,63.63,24.49c.81,0,1.61-.08,2.41-.14l2.41-.18c1.61-.16,3.22-.4,4.83-.59s3.22-.55,4.82-.9l2.4-.55,1.2-.28,1.19-.34a86.56,86.56,0,0,0,18.52-7.47,86.44,86.44,0,0,0,29.93-27.22,89.1,89.1,0,0,0,9.38-18.17,86.6,86.6,0,0,0,.5-58.69A84.22,84.22,0,0,0,158.84,48.72Z"/></g></g></g></svg>