<svg xmlns="http://www.w3.org/2000/svg" viewBox="0 0 63.77 63.92"><defs><style>.cls-1{fill:#065977;}</style></defs><g id="Layer_2" data-name="Layer 2"><g id="Layer_1-2" data-name="Layer 1"><path class="cls-1" d="M63.76,31.25v-.16c0-.29,0-.57,0-.86s0-.42,0-.63,0-.36,0-.54,0-.25,0-.38l0-.22c-.05-.41-.11-.83-.16-1.25a.28.28,0,0,1,0-.09c-.05-.25-.09-.51-.14-.76l-.09-.5c0-.1,0-.21,0-.31l-.12-.5A.29.29,0,0,0,63,25c-.07-.32-.15-.65-.22-1,0-.11-.06-.22-.1-.33s-.12-.47-.19-.7l-.15-.51-.17-.51a2.25,2.25,0,0,1-.08-.24.88.88,0,0,1-.05-.15c-.07-.21-.14-.41-.22-.62l-.39-1c-.07-.17-.12-.33-.2-.5s-.14-.32-.22-.48c-.14-.32-.28-.64-.43-.95l-.25-.48c-.08-.17-.17-.33-.25-.49s-.17-.32-.25-.48a29.32,29.32,0,0,0-2-3.1,27,27,0,0,0-1.77-2.26l-.31-.37a.52.52,0,0,1-.1-.11l-.2-.23-.18-.19-.05,0q-.34-.37-.69-.72a31.81,31.81,0,0,0-3.93-3.39L50,5.65l-.28-.2-.23-.15L49,5l-.65,1,.42.27.23.14.26.19.66.47a30.33,30.33,0,0,1,3.78,3.26l.21.2-2.85,2.75.21.22.24.25.15.16.17.19a28.73,28.73,0,0,1,1.83,2.3c.37.49.7,1,1.08,1.64.18.3.35.61.54.92l.26.49.25.5a27.72,27.72,0,0,1,1.74,4.41c.23.78.41,1.57.57,2.34.07.4.14.78.21,1.17s.09.77.14,1.15a28.8,28.8,0,0,1,.13,4.17c0,.15,0,.3,0,.44l0,.43,0,.4a1.41,1.41,0,0,0,0,.2l0,.19c-.07.49-.11.91-.16,1.26-.13.7-.2,1.1-.2,1.1L62,38a2.33,2.33,0,0,1,0,.28c-.12.5-.23,1-.34,1.44L61.21,41c-.12.4-.26.77-.37,1.11-.06.17-.1.34-.17.49s-.12.3-.17.44l-.3.75c-.08.22-.17.4-.24.55l-.2.45,1.09.5s.08-.16.22-.47c.06-.15.16-.34.25-.56s.19-.49.3-.78.12-.3.18-.46.12-.33.18-.51c.12-.36.26-.74.39-1.16s.24-.86.38-1.33.22-1,.35-1.5l.06-.29h0L63.38,37s0-.08,0-.12,0-.08,0-.12c0-.23.06-.48.09-.76s.06-.41.08-.62l0-.18v-.1c0-.31.05-.62.07-.94,0-.06,0-.12,0-.18s0-.35,0-.53,0-.45,0-.68C63.78,32.28,63.78,31.77,63.76,31.25Z"/><path class="cls-1" d="M12.07,55.53l.09.09.29.23.47.37.29.23.35.26a31.17,31.17,0,0,0,4.24,2.62l.7.37.75.33.38.18.2.08.2.08.81.32.41.17.43.14.87.3.91.26.46.13a1.55,1.55,0,0,0,.23.06l.23.06a31,31,0,0,0,8,.89l1,0,1-.08.52,0,.51-.07,1-.13,1-.18.5-.08L38.5,62l1-.22.94-.26.46-.13c.16,0,.3-.11.45-.15l.9-.31a3.75,3.75,0,0,0,.43-.16l.42-.17c.28-.11.57-.21.84-.33l.79-.36.39-.17.38-.19.73-.38a3.84,3.84,0,0,0,.35-.18l.34-.2c.45-.26.89-.49,1.28-.76l.58-.37.27-.18.27-.18,1-.69L51,56l.34-.27.28-.25.45-.39.38-.32.81.89-.39.34-.47.41-.3.25-.35.28-.81.64-1,.71-.27.19-.29.19-.6.38c-.4.28-.86.52-1.32.79l-.36.21c-.11.07-.24.12-.36.19l-.76.39-.39.19L45.2,61l-.83.37c-.28.13-.57.23-.86.35l-.45.17a4.7,4.7,0,0,1-.45.17l-.92.31c-.16,0-.31.12-.47.16l-.49.13-1,.28-1,.23-.51.12-.51.09-1,.18-1.05.14-.53.07-.53,0-1.07.08-1.08,0A32.12,32.12,0,0,1,24.09,63l-.24-.06-.24-.06-.48-.14c-.31-.09-.63-.17-.94-.27l-.9-.31L20.84,62l-.43-.17-.85-.33-.2-.08-.21-.1-.39-.18L18,60.78l-.73-.37a32.75,32.75,0,0,1-4.41-2.73l-.36-.27-.3-.24-.49-.38c-.13-.11-.24-.19-.3-.25l-.1-.08Z"/><path class="cls-1" d="M31.6,1.21l-.83,0h-.44l-.52,0c-.36,0-.78.06-1.23.1l-1.45.18-1.61.3L24.69,2c-.29.07-.57.12-.86.21-.57.17-1.15.31-1.72.52l-.85.29-.84.33c-.55.2-1.08.46-1.6.69l-.38.17-.37.19-.71.37c-.23.11-.44.24-.66.36l-.61.35a5.77,5.77,0,0,0-.55.35l-.5.31-.43.28-.36.25-.67.48-.72-1,.7-.5.37-.26.46-.29.51-.33c.18-.11.37-.24.57-.35l.64-.37c.22-.12.44-.26.68-.38l.74-.38.38-.19c.13-.07.27-.12.4-.18.54-.24,1.09-.51,1.66-.72l.87-.34.89-.3c.59-.22,1.2-.37,1.79-.54a8.89,8.89,0,0,1,.89-.22l.87-.21L27,.36,28.46.17l1.28-.1c.19,0,.37,0,.53,0h.46l.86,0Z"/><path class="cls-1" d="M4.3,31.56v.62L0,32.22v-.71Z"/></g></g></svg>