<svg xmlns="http://www.w3.org/2000/svg" viewBox="0 0 183.32 146.06"><defs><style>.cls-1,.cls-2{fill:#065977;}.cls-1{opacity:0.5;}</style></defs><g id="Layer_2" data-name="Layer 2"><g id="Layer_1-2" data-name="Layer 1"><polygon class="cls-1" points="182.63 20.6 182.63 31.39 179.13 31.39 179.13 145.37 166.9 145.37 166.9 97.53 157 80.52 157 65.93 170.68 65.93 170.68 40.76 157 40.76 157 20.42 142.75 20.42 136.93 14.96 110.34 14.96 100.48 20.42 24.39 20.42 1.95 2.37 29.86 2.37 29.86 8.43 104.89 8.43 104.89 2.37 157 2.37 182.63 20.6"/><path class="cls-2" d="M179.82,146.06h-13.6V97.72l-9.9-17V65.25H170V41.45H156.32V21.11H142.48l-5.82-5.46H110.52l-9.86,5.46H24.15L0,1.69H30.55V7.75H104.2V1.69h53l26.1,18.56V32.07h-3.5Zm-12.23-1.38h10.86V30.7H182V21L156.79,3.06H105.57V9.12H29.18V3.06H3.9L24.64,19.74H100.3l9.86-5.46h27L143,19.74h14.67V40.08h13.67V66.62H157.69V80.33l9.9,17Z"/><rect class="cls-2" x="32.27" width="69.98" height="4.75"/><rect class="cls-2" x="166.09" y="42.49" width="2.66" height="21.71"/><rect class="cls-2" x="162.14" y="42.49" width="2.66" height="21.71"/><rect class="cls-2" x="158.2" y="42.49" width="2.66" height="21.71"/><rect class="cls-2" x="154.25" y="42.49" width="2.66" height="21.71"/></g></g></svg>