<svg xmlns="http://www.w3.org/2000/svg" viewBox="0 0 315.18 274.53"><defs><style>.cls-1{fill:#00a8c1;}</style></defs><g id="Layer_2" data-name="Layer 2"><g id="Layer_1-2" data-name="Layer 1"><polygon class="cls-1" points="233.87 49.2 228.31 49.2 225.4 45.21 218.05 45.21 208.6 30.63 202.86 29.22 193.24 14.57 193.24 9.02 187.46 0 161.85 0 158.55 3.3 155.25 0 129.65 0 123.86 9.02 123.86 14.86 114.43 29.22 108.31 30.73 98.92 45.21 91.57 45.21 88.66 49.2 83.41 49.2 82.26 51.51 102.55 51.51 132.47 5.95 155.83 5.95 158.55 8.67 161.27 5.95 184.81 5.95 214.74 51.51 235.02 51.51 233.87 49.2"/><polygon class="cls-1" points="216.84 274.52 219.9 269.87 224.84 269.64 228.87 263.49 246.24 263.59 250.57 259.56 268.09 259.56 272.74 262.61 283.45 262.73 297.5 241.32 296.56 236.75 301.12 235.81 315.18 214.4 310.81 204.62 305.93 201.41 299.1 185.64 301.2 179.7 294.25 163.9 298.28 157.76 296.54 153.13 299.41 148.75 298.12 146.52 286.99 163.48 308.65 213.5 295.83 233.02 292.07 233.81 292.85 237.57 279.93 257.25 225.42 257.27 214.29 274.22 216.84 274.52"/><polygon class="cls-1" points="98.33 274.52 95.28 269.87 90.34 269.64 86.31 263.49 68.94 263.59 64.61 259.56 47.08 259.56 42.44 262.61 31.73 262.73 17.67 241.32 18.62 236.75 14.05 235.81 0 214.4 4.37 204.62 9.25 201.41 16.08 185.64 13.97 179.7 20.93 163.9 16.89 157.76 18.64 153.13 15.76 148.75 17.05 146.52 28.19 163.48 6.52 213.5 19.34 233.02 23.11 233.81 22.33 237.57 35.25 257.25 89.76 257.27 100.89 274.22 98.33 274.52"/><path class="cls-1" d="M202.18,48.26a108.89,108.89,0,0,0-33.94-8.89,9.81,9.81,0,0,0-19.61-.14,109.08,109.08,0,0,0-33.93,8.29A1.36,1.36,0,1,0,115.76,50a107.74,107.74,0,0,1,85.32.72,1.36,1.36,0,0,0,1.1-2.49Z"/><path class="cls-1" d="M202.87,248.33a1.36,1.36,0,0,0-1.79-.7,107.74,107.74,0,0,1-85.32.72,1.36,1.36,0,1,0-1.06,2.51,109.38,109.38,0,0,0,33.93,8.3,9.81,9.81,0,0,0,19.61-.15,108.89,108.89,0,0,0,33.94-8.89A1.35,1.35,0,0,0,202.87,248.33Z"/></g></g></svg>