<svg xmlns="http://www.w3.org/2000/svg" viewBox="0 0 470 470"><g id="Layer_2" data-name="Layer 2"><g id="Layer_1-2" data-name="Layer 1"><path d="M64.5,10l10,10H20v97.5L0,97.5V0H54.5Z"/><path d="M427,52c0,4.9-.1,9-.3,9-1-.73-14.89-14.7-18.2-18H427Z"/><path d="M470,192.5v64L449.5,277,429,256.5V127.8l20.1-20.1c5.23,5.16,15.72,15.59,20.9,20.8Z"/><path d="M41,342.5v43l-20,20-21-21v-85L20.5,279,41,299.5Z"/><path d="M470,442.7V470H415.5l-20-20H450V395.5l20,20Z"/><path d="M52.5,418l9,9H43c0-3.23-.14-17.31.3-18C43.4,409,47.6,413,52.5,418Z"/></g></g></svg>