<svg xmlns="http://www.w3.org/2000/svg" viewBox="0 0 84.3 9.9"><defs><style>.cls-1{fill:#065977;}</style></defs><g id="Layer_2" data-name="Layer 2"><g id="Layer_1-2" data-name="Layer 1"><path class="cls-1" d="M2.63,4.65A2.63,2.63,0,1,0,5.26,7.28,2.63,2.63,0,0,0,2.63,4.65Zm0,4.77A2.15,2.15,0,1,1,4.77,7.28,2.14,2.14,0,0,1,2.63,9.42Z"/><path class="cls-1" d="M2.63,5.79A1.49,1.49,0,1,0,4.11,7.28,1.49,1.49,0,0,0,2.63,5.79Zm0,2.69a1.21,1.21,0,1,1,1.21-1.2A1.21,1.21,0,0,1,2.63,8.48Z"/><rect class="cls-1" x="50.7" width="33.59" height="0.49"/><rect class="cls-1" x="40.2" y="3.51" width="11.68" height="0.49" transform="translate(7 28.46) rotate(-36.99)"/><rect class="cls-1" x="2.63" y="7.03" width="38.75" height="0.49"/></g></g></svg>